# xmcd
#
# Track frame offsets:
#	150
#	11010
#	32604
#	55508
#	76980
#	98825
#	124964
#	152998
#	175069
#	197663
#	219787
#
# Disc length: 3165 seconds
#
# Revision: 0
# Processed by: cddbd v1.5.2PL0 Copyright (c) Steve Scherf et al.
# Submitted via: EasyCDDAExtractor 12.0.4.1
#
DISCID=830c5b0b
DTITLE=Various Artist - Espiritu y Tradicion
DYEAR=1900
DGENRE=
TTITLE0=Oya
TTITLE1=Amor Prohibido
TTITLE2=Destiono
TTITLE3=Eclipee de Amor
TTITLE4=Entre la Rumba y el Son
TTITLE5=Hoy
TTITLE6=Madre
TTITLE7=San balada
TTITLE8=Suenos
TTITLE9=Tania
TTITLE10=Julito Tomboa'o
EXTD=
EXTT0=
EXTT1=
EXTT2=
EXTT3=
EXTT4=
EXTT5=
EXTT6=
EXTT7=
EXTT8=
EXTT9=
EXTT10=
PLAYORDER=
